<?xml version="1.0" standalone="no"?>
<!DOCTYPE svg PUBLIC "-//W3C//DTD SVG 20010904//EN"
 "http://www.w3.org/TR/2001/REC-SVG-20010904/DTD/svg10.dtd">
<svg version="1.0" xmlns="http://www.w3.org/2000/svg"
 width="512.000000pt" height="512.000000pt" viewBox="0 0 512.000000 512.000000"
 preserveAspectRatio="xMidYMid meet">
<style>
  .red {
    fill: #d80027
  }
  .blue {
    fill: #0052b4
  }
</style>

<g transform="translate(0.000000,512.000000) scale(0.100000,-0.100000)"
fill="#000000" stroke="none">
<path class="red" d="M2390 5114 c-19 -2 -63 -7 -97 -10 l-63 -6 -2 -1101 -3 -1102 -1102
-3 -1101 -2 -9 -68 c-10 -87 -10 -437 0 -524 l9 -68 1101 -2 1102 -3 3 -1102
2 -1101 68 -9 c87 -10 437 -10 524 0 l68 9 2 1101 3 1102 1102 3 1101 2 9 68
c10 87 10 437 0 524 l-9 68 -1101 2 -1102 3 -3 1101 -2 1101 -43 7 c-52 8
-409 16 -457 10z"/>
<path class="blue" d="M1795 5001 c-217 -66 -442 -174 -650 -312 -74 -49 -135 -93 -135 -97
0 -4 198 -205 440 -447 l440 -440 0 663 c0 364 -1 662 -2 661 -2 0 -43 -13
-93 -28z"/>
<path class="blue" d="M3230 4369 l0 -664 440 440 c242 242 440 443 440 447 0 14 -268 185
-377 241 -127 65 -298 136 -404 167 -39 12 -78 24 -85 27 -12 4 -14 -100 -14
-658z"/>
<path class="red" d="M3717 4032 l-487 -487 0 -155 0 -155 567 567 568 568 -45 46 c-25 25
-61 58 -81 74 l-35 29 -487 -487z"/>
<path class="red" d="M670 4283 l-71 -77 488 -488 488 -488 155 0 155 0 -565 565 c-311
311 -568 565 -571 565 -4 0 -39 -35 -79 -77z"/>
<path class="blue" d="M431 3975 c-135 -204 -252 -446 -311 -646 -12 -39 -24 -78 -27 -85
-4 -12 100 -14 658 -14 l664 0 -440 440 c-242 242 -443 440 -447 440 -4 0 -48
-61 -97 -135z"/>
<path class="blue" d="M4145 3670 l-440 -440 664 0 c558 0 662 2 658 14 -3 7 -15 46 -27 85
-31 106 -102 277 -166 401 -56 110 -228 380 -242 380 -4 0 -205 -198 -447
-440z"/>
<path class="blue" d="M93 1876 c3 -7 15 -46 27 -85 31 -106 102 -277 166 -401 56 -110 228
-380 242 -380 4 0 205 198 447 440 l440 440 -664 0 c-558 0 -662 -2 -658 -14z"/>
<path class="red" d="M3803 1323 l568 -568 75 79 76 79 -489 489 -488 488 -155 0 -155 0
568 -567z"/>
<path class="blue" d="M4145 1450 c242 -242 443 -440 447 -440 14 0 186 270 242 380 64 124
135 295 166 401 12 39 24 78 27 85 4 12 -100 14 -658 14 l-664 0 440 -440z"/>
<path class="red" d="M1320 1314 l-565 -565 79 -75 79 -76 489 489 489 489 -3 152 -3 152
-565 -566z"/>
<path class="blue" d="M1447 972 c-240 -240 -437 -440 -437 -444 0 -15 274 -188 388 -246
131 -67 311 -140 420 -170 l72 -20 0 659 c0 362 -1 659 -3 659 -1 0 -199 -197
-440 -438z"/>
<path class="blue" d="M3230 751 c0 -558 2 -662 14 -658 7 3 46 15 85 27 106 31 277 102
401 166 110 56 380 228 380 242 0 4 -198 205 -440 447 l-440 440 0 -664z"/>
</g>
</svg>
