<?xml version="1.0" encoding="UTF-8"?>
<svg id="Layer_1" data-name="Layer 1" xmlns="http://www.w3.org/2000/svg" xmlns:xlink="http://www.w3.org/1999/xlink" viewBox="0 0 337.86512 373.97796">
  <defs>
    <style>
      .cls-1 {
        fill: url(#linear-gradient-27);
      }

      .cls-2 {
        fill: url(#linear-gradient-24);
      }

      .cls-3 {
        fill: #122649;
      }

      .cls-4 {
        fill: #fff;
      }

      .cls-5 {
        fill: #1c3a69;
      }

      .cls-6 {
        fill: url(#linear-gradient-20);
      }

      .cls-7 {
        fill: url(#linear-gradient-5);
      }

      .cls-8 {
        fill: url(#linear-gradient-6);
      }

      .cls-9 {
        fill: url(#linear-gradient-23);
      }

      .cls-10 {
        fill: url(#linear-gradient-15);
      }

      .cls-11 {
        fill: url(#linear-gradient-8);
      }

      .cls-12 {
        fill: url(#linear-gradient);
      }

      .cls-13 {
        fill: url(#linear-gradient-7);
      }

      .cls-14 {
        fill: url(#linear-gradient-14);
      }

      .cls-15 {
        fill: url(#linear-gradient-18);
      }

      .cls-16 {
        fill: url(#linear-gradient-26);
      }

      .cls-17 {
        fill: url(#linear-gradient-9);
      }

      .cls-18 {
        fill: url(#linear-gradient-10);
      }

      .cls-19 {
        fill: url(#linear-gradient-2);
      }

      .cls-20 {
        fill: url(#linear-gradient-16);
      }

      .cls-21 {
        fill: #afd4e6;
      }

      .cls-22 {
        fill: url(#linear-gradient-12);
      }

      .cls-23 {
        fill: #faf6e0;
      }

      .cls-24 {
        fill: url(#linear-gradient-28);
      }

      .cls-25 {
        fill: url(#linear-gradient-11);
      }

      .cls-26 {
        fill: #61afe1;
      }

      .cls-27 {
        fill: url(#linear-gradient-4);
      }

      .cls-28 {
        fill: url(#linear-gradient-19);
      }

      .cls-29 {
        fill: #10a9e0;
      }

      .cls-30 {
        fill: none;
      }

      .cls-31 {
        fill: url(#linear-gradient-25);
      }

      .cls-32 {
        fill: url(#linear-gradient-3);
      }

      .cls-33 {
        fill: url(#linear-gradient-17);
      }

      .cls-34 {
        fill: url(#linear-gradient-21);
      }

      .cls-35 {
        fill: url(#linear-gradient-13);
      }

      .cls-36 {
        fill: #c83e27;
      }

      .cls-37 {
        fill: url(#linear-gradient-22);
      }
    </style>
    <linearGradient id="linear-gradient" x1="36.9518" y1="254.96261" x2="235.7145" y2="345.09759" gradientTransform="translate(-13.96054 365.35671) rotate(3.01803) scale(1 -1)" gradientUnits="userSpaceOnUse">
      <stop offset="0" stop-color="#2ca4dd"/>
      <stop offset="1" stop-color="#5bc7d8"/>
    </linearGradient>
    <linearGradient id="linear-gradient-2" x1="176.07938" y1="200.83379" x2="337.86512" y2="200.83379" gradientTransform="translate(0 377.82158) scale(1 -1)" gradientUnits="userSpaceOnUse">
      <stop offset="0" stop-color="#3e76bb"/>
      <stop offset=".06418" stop-color="#3e7ec1"/>
      <stop offset=".35074" stop-color="#2aace3"/>
      <stop offset=".61205" stop-color="#39c4e5"/>
      <stop offset=".83714" stop-color="#55c7db"/>
      <stop offset="1" stop-color="#5bc7d8"/>
    </linearGradient>
    <linearGradient id="linear-gradient-3" x1="887.34454" y1="-1100.85963" x2="778.87291" y2="-1100.63418" gradientTransform="translate(-736.13477 1329.59998)" gradientUnits="userSpaceOnUse">
      <stop offset="0" stop-color="#ed1c24"/>
      <stop offset="1" stop-color="#f37760"/>
    </linearGradient>
    <linearGradient id="linear-gradient-4" x1="253.60064" y1="236.91111" x2="292.96241" y2="236.91111" gradientTransform="translate(0 377.82158) scale(1 -1)" xlink:href="#linear-gradient"/>
    <linearGradient id="linear-gradient-5" x1="239.0009" y1="219.41503" x2="294.84421" y2="219.41503" gradientTransform="translate(0 377.82158) scale(1 -1)" xlink:href="#linear-gradient"/>
    <linearGradient id="linear-gradient-6" x1="238.98622" y1="-699.5233" x2="239.03387" y2="-699.4463" gradientTransform="translate(0 805.59998)" gradientUnits="userSpaceOnUse">
      <stop offset="0" stop-color="#1b478d"/>
      <stop offset="1" stop-color="#1b69b3"/>
    </linearGradient>
    <linearGradient id="linear-gradient-7" x1="164.00424" y1="229.23914" x2="166.82701" y2="229.23914" gradientTransform="translate(0 377.82158) scale(1 -1)" gradientUnits="userSpaceOnUse">
      <stop offset="0" stop-color="#1b478d"/>
      <stop offset="1" stop-color="#2361ae"/>
    </linearGradient>
    <linearGradient id="linear-gradient-8" x1="241.90403" y1="-709.32701" x2="245.62097" y2="-703.32435" xlink:href="#linear-gradient-6"/>
    <linearGradient id="linear-gradient-9" x1="171.22097" y1="762.37542" x2="217.1738" y2="808.25888" gradientTransform="translate(0 901.82158) scale(1 -1)" gradientUnits="userSpaceOnUse">
      <stop offset="0" stop-color="#1b478d"/>
      <stop offset="1" stop-color="#167eb7"/>
    </linearGradient>
    <linearGradient id="linear-gradient-10" x1="159.01215" y1="223.15304" x2="35.78231" y2="223.15304" gradientTransform="translate(0 377.82158) scale(1 -1)" xlink:href="#linear-gradient-9"/>
    <linearGradient id="linear-gradient-11" x1="158.23281" y1="169.44023" x2="179.29822" y2="169.44023" gradientTransform="translate(0 377.82158) scale(1 -1)" gradientUnits="userSpaceOnUse">
      <stop offset=".00559" stop-color="#005998"/>
      <stop offset="1" stop-color="#167eb7"/>
    </linearGradient>
    <linearGradient id="linear-gradient-12" x1="356.11932" y1="247.41141" x2="359.09995" y2="247.41141" gradientTransform="translate(529.49513 377.82158) rotate(-180)" gradientUnits="userSpaceOnUse">
      <stop offset="0" stop-color="#0a4e8f"/>
      <stop offset="1" stop-color="#005899"/>
    </linearGradient>
    <linearGradient id="linear-gradient-13" x1="440.42681" y1="531.50542" x2="449.65956" y2="531.50542" gradientTransform="translate(230.22952 828.72758) rotate(-45) scale(1 -1)" gradientUnits="userSpaceOnUse">
      <stop offset="0" stop-color="#1b478d"/>
      <stop offset="1" stop-color="#2063af"/>
    </linearGradient>
    <linearGradient id="linear-gradient-14" x1="164.10879" y1="231.77123" x2="167.69213" y2="231.77123" xlink:href="#linear-gradient-7"/>
    <linearGradient id="linear-gradient-15" x1="514.89874" y1="231.77123" x2="518.48207" y2="231.77123" gradientTransform="translate(689.0738 377.82158) rotate(-180)" xlink:href="#linear-gradient-7"/>
    <linearGradient id="linear-gradient-16" x1="429.64452" y1="520.45256" x2="438.87727" y2="520.45256" xlink:href="#linear-gradient-13"/>
    <linearGradient id="linear-gradient-17" x1="163.688" y1="216.89407" x2="168.27917" y2="216.89407" xlink:href="#linear-gradient-7"/>
    <linearGradient id="linear-gradient-18" x1="514.05557" y1="216.89407" x2="518.64726" y2="216.89407" gradientTransform="translate(689.0738 377.82158) rotate(-180)" xlink:href="#linear-gradient-7"/>
    <linearGradient id="linear-gradient-19" x1="162.88039" y1="209.99549" x2="175.69622" y2="209.99549" gradientTransform="translate(0 377.82158) scale(1 -1)" xlink:href="#linear-gradient-13"/>
    <linearGradient id="linear-gradient-20" x1="164.71151" x2="167.69213" gradientTransform="translate(0 377.82158) scale(1 -1)" xlink:href="#linear-gradient-12"/>
    <linearGradient id="linear-gradient-21" x1="165.07429" y1="254.12887" x2="172.38313" y2="254.12887" gradientTransform="translate(0 377.82158) scale(1 -1)" xlink:href="#linear-gradient-12"/>
    <linearGradient id="linear-gradient-22" x1="167.20626" y1="280.4319" x2="192.205" y2="329.4947" gradientTransform="translate(0 377.82158) scale(1 -1)" gradientUnits="userSpaceOnUse">
      <stop offset="0" stop-color="#ffdd7e"/>
      <stop offset="1" stop-color="#fcf9e3"/>
    </linearGradient>
    <linearGradient id="linear-gradient-23" x1="131.20053" y1="250.76831" x2="144.66912" y2="327.33221" gradientTransform="translate(-16.273 390.52822) rotate(.34302) scale(1.08404 -1.06873) skewX(.10633)" gradientUnits="userSpaceOnUse">
      <stop offset="0" stop-color="#fcb31e"/>
      <stop offset="1" stop-color="#faf4a6"/>
    </linearGradient>
    <linearGradient id="linear-gradient-24" x1="162.17126" y1="267.56798" x2="159.39794" y2="339.85827" gradientTransform="translate(-7.53281 388.0838) rotate(-1.92826) scale(1.07198 -1.01919) skewX(.21359)" gradientUnits="userSpaceOnUse">
      <stop offset="0" stop-color="#ffd15c"/>
      <stop offset=".51006" stop-color="#ffdd7e"/>
      <stop offset="1" stop-color="#f2f5d1"/>
    </linearGradient>
    <linearGradient id="linear-gradient-25" x1="97.53307" y1="223.38463" x2="113.39926" y2="308.20709" gradientTransform="translate(-1.88776 377.99264) rotate(.39592) scale(1 -1.01942)" gradientUnits="userSpaceOnUse">
      <stop offset="0" stop-color="#f47c24"/>
      <stop offset="1" stop-color="#f4e874"/>
    </linearGradient>
    <linearGradient id="linear-gradient-26" x1="62.15181" y1="196.19335" x2="90.51575" y2="347.83037" gradientTransform="translate(0 377.82158) scale(1 -1)" gradientUnits="userSpaceOnUse">
      <stop offset="0" stop-color="#f15d22"/>
      <stop offset="1" stop-color="#f4e874"/>
    </linearGradient>
    <linearGradient id="linear-gradient-27" x1="14.59405" y1="223.57271" x2="51.65333" y2="223.57271" gradientTransform="translate(-9.1489 381.23512) rotate(4.1259) scale(.97278 -1.0236)" gradientUnits="userSpaceOnUse">
      <stop offset="0" stop-color="#d65e2d"/>
      <stop offset="1" stop-color="#ed9134"/>
    </linearGradient>
    <linearGradient id="linear-gradient-28" x1="141.87006" y1="201.818" x2="-1.24373" y2="199.94199" gradientTransform="translate(0 377.82158) scale(1 -1)" gradientUnits="userSpaceOnUse">
      <stop offset="0" stop-color="#3e76bb"/>
      <stop offset=".40267" stop-color="#369ed8"/>
      <stop offset="1" stop-color="#5bc7d8"/>
    </linearGradient>
  </defs>
  <path class="cls-12" d="M182.63923,23.04416c-71.32121-3.74375-132.18653,50.78855-135.94654,121.80129-.10003,1.8892-.14986,3.76929-.1678,5.6429l225.33322-85.10075c-22.90828-25.35625-55.01022-40.59188-89.21888-42.34344Z"/>
  <path class="cls-21" d="M118.89243,276.25414l-14.79333-.83274,.15682-.26024,15.47289-1.04094-.83638,2.13392Z"/>
  <path class="cls-21" d="M219.15255,274.64066c1.25456-.62457,2.97958-.36434,4.39095-.31227l11.65693,.83274v.26024l-15.36834,.78071-.67955-1.56141Z"/>
  <path class="cls-19" d="M337.65602,162.27185c-7.87803,7.73776-17.00601,13.96179-26.70792,18.93343l-.0037-.04314c-25.42078,8.73842-61.46192,12.91106-80.2921-10.33901-7.59259-10.00424-6.28094-23.52202,1.96644-32.92097,1.83047-2.4683,4.80867-7.04388,7.86879-7.56037,5.0208-5.03789,11.40325-7.55955,17.60871-10.59008,10.58514-6.29491,14.03667-18.87382,17.92959-29.66116-40.04749-6.53415-69.59296-2.18142-99.94645,26.26664,.9252,17.39736,3.64823,44.37685,5.64551,61.72395,.88865,0,3.50231-.31332,4.18186,.05223,.05228,4.38646,.52273,9.24291-.20909,13.57718-.54456,.28803-1.16651,.39768-1.77729,.31332,.2725,4.79376,7.59928,26.28032,8.72964,31.43637l5.95915-.05223c.13022,3.71249,1.30568,8.49717-1.15016,11.54047,.08129,.48289,.2591,.94463,.52288,1.35785,1.25877,2.88232,14.71798,26.84835,16.57063,30.23536,28.40522-8.87724,55.79853-23.8384,77.36444-44.17805-46.43789,12.54285-99.04251-11.24758-81.28489-65.58823-.93721,51.98576,65.15994,66.16985,100.99178,37.8092l.0001,.00753c.33912-.2349,.70204-.44512,1.04547-.68836l-.01113-.0689c11.23231-8.07937,18.68016-19.83623,25.20685-31.72016-.05947,.06466-.13033,.11794-.20911,.15715Z"/>
  <path class="cls-36" d="M79.6834,359.95827l-6.04741-16.71659h6.80214l1.83009,6.49776c.59612,2.10581,1.06802,4.24456,1.41327,6.40526h.18428c.39635-2.14606,.91292-4.26835,1.54729-6.35697l1.74942-6.54605h6.62247l-6.10331,16.71659h-7.99823Z"/>
  <path class="cls-36" d="M102.41334,343.24167v16.71659h-6.41777v-16.71659h6.41777Z"/>
  <path class="cls-36" d="M121.45479,352.87294h-8.45612v3.98384h9.5728l-.74888,3.10148h-15.11534v-16.71659h15.13217v3.14214h-8.84077v3.36273h8.45612v3.12639Z"/>
  <path class="cls-36" d="M129.40886,346.38382h-5.50733v-3.14214h17.38929v3.14214h-5.47848v13.57445h-6.40347v-13.57445Z"/>
  <polygon class="cls-36" points="260.20848 273.84226 242.51294 273.83031 242.52862 285.26296 260.19803 285.26296 260.20848 273.84226"/>
  <path class="cls-32" d="M56.08193,224.53389c11.63547,1.67312,23.44017,1.83134,35.11665,.47063,19.36876-2.3531,37.588-10.19674,51.09442-23.11262,3.61768-3.46703,6.7498-7.30204,9.90553-11.1038,.0353,.25947,.06145,.52277,.10478,.77885,.54846,.28943,1.17454,.39955,1.7894,.31478-.2725,4.78333-7.54753,26.10135-8.7618,31.46728l-4.35983,.03447-.00514,.04398-1.6619-.01453c-.1311,3.72985-1.31457,8.53695,1.15796,11.5945-.08187,.48527-.26087,.9492-.52639,1.36422-1.26733,2.89579-14.81806,26.9741-16.68333,30.377-28.59839-8.91883-56.178-23.9501-77.89062-44.38501,.0591,.00572,.12123,.01088,.18059,.01657,1.35307,.30026,2.69832,.69044,3.8152,.95099,2.24145,.52289,4.48298,.83663,6.72446,1.20269Z"/>
  <path class="cls-27" d="M291.18511,128.17995c.24513-.00859,.49044,.00886,.73184,.05205l1.04547,20.87091c-4.54778,1.71755-8.46827,3.6433-13.43423,4.26787-7.10915,.88481-13.90467-.31229-19.65475-4.68424l-.94091-.78071c-3.55458-3.38307-5.17505-6.97432-5.33188-11.86675,12.44101,.46842,26.55479-1.87371,37.58447-7.85913Z"/>
  <path class="cls-7" d="M244.4528,141.66017l.52273,.1041,1.04547,3.90354c2.30002,6.71408,7.84099,12.38722,14.16606,15.45801,8.88644,4.26787,19.18428,4.21582,28.59346,1.7696,2.03867-.52047,4.07731-1.35323,6.06369-2.02984l-.05226,7.91118-5.12277,2.39417c-4.02505,1.8737-8.72964,2.86259-13.12058,3.48717-9.61829,1.30118-20.64794,.26024-28.59348-5.82929-4.28641-3.27896-8.20691-7.70297-8.83418-13.27203-.73184-5.62112,1.98638-9.73284,5.33186-13.89662Z"/>
  <path class="cls-8" d="M239.01639,106.164h0v-.10409c0,.05205-.05228,.10409,0,.10409Z"/>
  <path class="cls-13" d="M164.16107,144.6789l2.66594,3.85149-1.35911,2.29007-1.15002,1.61347-.31364,.05205,.15683-7.80707Z"/>
  <path class="cls-26" d="M216.77919,129.2948c4.10298-3.75661,8.91467-6.43819,13.26924-10.52277-.83875,.39003-1.6775,.78005-2.46991,1.22067-.05737,.03779-.06288,.082-.12028,.11977-31.42379,18.82588-38.12228,52.69165-27.13011,82.81984-.17573-1.54772-.39782-3.14605-.67733-4.70658-7.48699-24.44366-3.66688-50.85577,17.12839-68.93094Z"/>
  <path class="cls-29" d="M194.88335,273.45879l.91328,2.81056h-54.51191c.13592-.82706,.32661-1.64423,.57083-2.44622,5.02309-.36434,10.16036-.15614,15.18343-.15614h33.22083c1.54117-.00003,3.19652,.15614,4.62354-.2082Z"/>
  <path class="cls-3" d="M144.51066,343.55578h14.98136v3.1335h-8.6759v3.60162h8.12865v3.11012h-8.12865v6.87134h-6.30546v-16.71659Z"/>
  <path class="cls-3" d="M168.45375,353.43204v6.84034h-6.27688v-16.71659h9.34818c5.33965,0,8.0605,1.60157,8.0605,4.62884,0,2.31417-1.8847,3.39781-3.55193,3.79629,2.16495,.58401,3.18744,1.6585,3.18744,4.06314v.58146c-.04146,1.22294,.05823,2.44657,.2971,3.64686h-6.17069c-.32313-.64551-.43391-2.13271-.43391-3.76732v-.57537c0-1.97718-.65954-2.49765-3.09045-2.49765h-1.36937Zm.01429-2.87632h1.47376c2.37757,0,3.2949-.51895,3.2949-2.15304,0-1.37742-.80452-1.97972-2.89162-1.97972h-1.87704v4.13277Z"/>
  <path class="cls-3" d="M188.68897,356.69414l-.94184,3.57824h-6.36061l5.46063-16.71659h8.93852l5.53106,16.71659h-6.60665l-.97093-3.57824h-5.05019Zm4.20841-3.23055c-.6284-2.43869-1.23434-5.15948-1.58453-6.6965h-.2093c-.27055,1.60309-.94643,4.25628-1.60138,6.6965h3.39521Z"/>
  <path class="cls-3" d="M203.41075,360.27238v-16.71659h6.95888c4.20841,7.87874,5.18547,9.77307,5.47031,10.5365h.11282c-.26973-2.47961-.39025-4.9731-.36091-7.46704v-3.06946h5.61631v16.71659h-6.85731c-4.37176-8.68893-5.19312-10.37335-5.50452-11.0956h-.12711c.219,2.01124,.33437,5.10764,.33437,7.84215v3.25346h-5.64284Z"/>
  <path class="cls-3" d="M242.70144,355.0331c-.08015,1.73016-1.10468,5.5539-8.81448,5.5539-7.64752,0-9.25043-3.36426-9.25043-8.69909,0-6.04896,3.17826-8.63045,9.50873-8.63045,7.38615,0,8.47603,3.41204,8.55617,5.40548h-6.3366c-.05309-.93421-.09444-2.37973-2.31605-2.37973-2.18026,0-2.74329,1.52736-2.74329,5.61794,0,3.59146,.33385,5.69164,2.66369,5.69164,2.16852,0,2.3038-1.55684,2.38344-2.5597h6.34882Z"/>
  <path class="cls-3" d="M260.04044,353.18705h-8.38108v3.98384h9.4878l-.74224,3.10148h-14.98109v-16.71659h14.99793v3.14214h-8.76241v3.36273h8.38108v3.12639Z"/>
  <path class="cls-3" d="M147.83466,371.96063c.05462,.53724,.27617,.90727,.92703,.90727,.6325,0,.83515-.29378,.83515-.66584,0-.45287-.32977-.71921-1.44492-1.11363-1.64656-.58658-2.26858-1.08161-2.26858-2.04326,0-1.11922,.9911-1.85316,2.86916-1.85316,2.20885,0,2.84108,.9525,2.8592,1.95736h-2.0968c-.0365-.45592-.15723-.84729-.77568-.84729-.48445,0-.70115,.21703-.70115,.58197,0,.3746,.21159,.56774,1.24251,.92353,1.75708,.61044,2.50314,1.12684,2.50314,2.22725,0,1.08161-.91606,1.94313-3.04374,1.94313-2.30533,0-3.00878-.90676-3.05497-2.01734h2.14964Z"/>
  <path class="cls-3" d="M154.98752,367.31196v6.543h-2.17848v-6.543h2.17848Z"/>
  <path class="cls-3" d="M156.44547,373.85496v-6.543h2.38344c1.44109,3.08369,1.77572,3.82526,1.87321,4.12413h.0388c-.09254-.97137-.13387-1.94691-.12379-2.92257v-1.20156h1.92348v6.543h-2.34847c-1.49724-3.40086-1.77852-4.06009-1.88497-4.34269h-.04365c.07504,.78681,.1146,1.99904,.1146,3.06946v1.27322h-1.93265Z"/>
  <path class="cls-3" d="M169.90378,371.80459c-.02757,.67702-.37852,2.17338-3.01898,2.17338-2.61902,0-3.16805-1.31694-3.16805-3.40492,0-2.36754,1.0886-3.37798,3.25663-3.37798,2.52943,0,2.90285,1.33574,2.93043,2.11594h-2.17031c-.01838-.36545-.03242-.93116-.79329-.93116-.74658,0-.93954,.59722-.93954,2.19879,0,1.40538,.11435,2.22776,.91223,2.22776,.74275,0,.78895-.60942,.81626-1.00181h2.17462Z"/>
  <path class="cls-3" d="M175.84373,371.08182h-2.87043v1.55938h3.24921l-.25422,1.21372h-5.13085v-6.54297h5.13646v1.23002h-3.00061v1.31592h2.87043v1.22392Z"/>
  <path class="cls-3" d="M179.16543,373.85496v-.08132c.00919-1.21426,.63351-1.91314,2.04807-3.01558,.98982-.77918,1.19963-.96877,1.19963-1.59903,0-.38019-.08729-.6572-.60135-.6572-.5503,0-.67128,.32936-.68915,.96013h-1.97709c.00919-1.03434,.56306-2.05698,2.752-2.05698,1.94391,0,2.66369,.7619,2.66369,1.83334,0,.76749-.28332,1.18123-1.44772,2.04021-.57976,.35725-1.08345,.82439-1.48244,1.37488h3.14405l-.2583,1.20156h-5.35139Z"/>
  <path class="cls-3" d="M191.16839,370.62234c0,2.74213-1.2078,3.33021-2.89851,3.33021-1.65804,0-2.86533-.60993-2.86533-3.35054,0-2.76907,1.44058-3.19704,2.9026-3.19704,1.52071,0,2.86125,.48489,2.86125,3.21737Zm-3.63309-.03812c0,1.66612,.06024,2.24657,.75347,2.24657,.67894,0,.73918-.57841,.73918-2.2344,0-1.66561-.05462-2.06359-.73918-2.06359-.62842,.00003-.75349,.46053-.75349,2.05142h.00002Z"/>
  <path class="cls-3" d="M192.75037,373.85496v-4.83317c-.24503-.00661-.63861-.03914-.85659-.06201v-1.03129c.54341-.0114,1.07346-.1697,1.53349-.45795h1.46865v6.38442h-2.14555Z"/>
  <path class="cls-3" d="M198.20944,372.36115c.04645,.21907,.13426,.4976,.64729,.4976,.81166,0,.78002-1.13142,.7938-1.76167-.38671,.30668-.87721,.45322-1.36962,.40916-1.36911,0-2.2257-.66787-2.2257-1.94008,0-1.33269,.95817-2.16118,2.83725-2.16118,2.04192,0,2.88064,.8849,2.88064,2.86364,0,2.65928-.67026,3.69006-3.02409,3.69006-2.36863,0-2.557-1.23663-2.58099-1.5975l2.04141-.00003Zm-.03267-2.91037c0,.66635,.23482,.94437,.76215,.94437,.487,0,.71161-.24397,.71161-.87525,0-.67194-.12558-1.01855-.73407-1.01855-.53141-.00003-.73969,.30595-.73969,.94942Z"/>
  <path class="cls-3" d="M207.21598,307.95408l29.30882-.04085-.12063,27.41682-14.79727,.08237-6.79356,.50103c-6.05624,.34464-11.29163-.17278-16.89904-2.41404-5.28611-2.36153-9.4182-6.1258-12.66176-10.68234l15.92107-11.00103c.50944,2.0309,1.51787,3.90389,2.93458,5.45053,1.73367,2.01896,4.21008,3.25873,6.87167,3.44021,2.92732,.16681,4.99195-.79999,7.1435-2.58679-.60505-.25931-9.39552-.08205-10.84469-.09044l-.06268-10.07547Z"/>
  <path class="cls-3" d="M214.91656,285.30807c6.08259-.4854,12.19295,.49874,17.81163,2.86879-.91314,2.39019-1.38829,5.11304-1.97775,7.59392-.61248,2.57815-1.40208,5.21841-1.70997,7.83802-4.55912-2.00762-10.89194-2.35048-15.7149-1.05247-6.08178,1.63702-11.56849,5.48366-16.67537,8.80396l-17.95027,12.46556c-4.55847,3.33611-8.73313,6.83154-14.08875,9.1289-4.89095,2.07242-10.21195,2.93912-15.51119,2.52653-7.39283-.58515-14.41405-3.72669-19.19398-8.92686-4.55979-4.96087-6.96602-11.06523-6.33447-17.54791,.68117-6.98907,4.10995-12.66073,10.02745-17.17163l.49255-.37657c5.77686-4.23455,14.07562-6.13298,21.4024-5.34224,8.79591,.9492,16.02674,5.07994,21.47796,11.32928l-15.93243,10.64476c-.59544-1.4975-1.5637-2.81958-2.81368-3.84188-2.15784-1.77486-4.55059-2.40508-7.43195-2.27948-2.60304,.10915-5.06887,1.19215-6.90489,3.03261-1.63907,1.72146-2.4862,4.04353-2.33886,6.41107,.21563,2.27868,1.38095,4.36298,3.21257,5.74596,2.03018,1.52234,4.54974,2.25229,7.08331,2.05209,2.63333-.15947,5.11931-1.26404,6.99723-3.10901,.76267-.78417,1.36231-1.69252,2.11968-2.47818,1.05081-1.09006,2.55673-1.98792,3.81028-2.88283l7.48815-5.23629c12.80299-8.75882,25.98254-19.06011,42.65527-20.1961Z"/>
  <polygon class="cls-3" points="242.57672 335.35369 260.16667 335.28914 260.20848 289.65889 242.51294 289.65889 242.57672 335.35369"/>
  <polygon class="cls-3" points="100.30406 319.44131 93.47194 319.44131 93.47194 273.79543 73.61961 273.75588 73.64731 335.36932 119.81297 335.31779 119.9379 319.46787 100.30406 319.44131"/>
  <path class="cls-11" d="M248.79148,99.03354c-1.20228-3.27897-6.95234-5.20472-8.67736-.62456-1.77729,4.78834,4.12958,8.32755,7.6319,4.63219,1.35911-1.35322,1.51594-2.75849,1.04547-4.00763Z"/>
  <path class="cls-17" d="M228.30037,88.26669c-14.8456,2.44622-29.63894,9.47258-41.2436,18.89312l-9.93192,8.79597,1.67275,24.46217c.20909,2.75849,.10455,5.56905,.7841,8.2755,.7841-2.29007,1.15002-4.84038,2.19548-7.13047,1.09651-2.3991,2.37206-4.71301,3.81594-6.92227,8.52053-13.37612,19.96839-25.19083,33.97762-32.68562,3.1364-1.66551,6.4296-3.17488,9.46146-5.10062,1.79053-1.11706,3.42512-2.46458,4.86141-4.00763,.73182-.78071,1.30683-2.08189,1.88184-3.12283,.4289-.71122,.7462-1.48347,.94091-2.29007-2.81934,.11246-5.62957,.39053-8.416,.83277Z"/>
  <path class="cls-4" d="M248.68694,98.30488c-.73726-1.59593-2.55035-2.39825-4.23414-1.8737-4.75687,1.14504-4.96596,8.22345,.57501,8.2755,3.86822,.05205,4.91368-3.90353,3.65913-6.40179Z"/>
  <polygon class="cls-30" points="168.07215 36.11737 247.92426 76.57779 164.51184 34.31341 168.07215 36.11737"/>
  <path class="cls-3" d="M312.48142,76.42356c-41.21114-12.88383-87.04318,4.56016-128.21976,12.5154-55.53558,15.96543-123.20099,36.28006-161.34293,81.36236,41.54381,26.73399,80.23189,7.74259,116.56938-17.07146-4.75687,9.83691-9.566,20.975-1.35911,30.55169,7.16144-7.80707,13.01604-18.00832,18.24336-27.11658l-2.71822,21.13115h-3.18457c-.14078,.25539-.3276,.48278-.55113,.67076-.22535,4.23372-1.85649,11.7319,1.95843,13.90244l-8.10236,30.65578-5.90687,.05205c-.41818,3.5392-1.09774,9.00415,1.51592,11.81471-5.80234,14.26092-14.95016,27.37681-21.37976,41.32545l25.92754,.05203c.12006-.8816,.28853-1.75599,.50467-2.61923h-.74789c.77548-2.17207,1.70903-4.28493,2.79319-6.32177,3.14498-5.74006,8.49507-9.96341,14.82539-11.70311,6.66066-1.82861,14.18078-1.20165,20.1969,2.0376,6.60696,3.55273,10.04474,9.19533,12.13959,15.98732h-.75377l.70151,2.61923,26.45027-.1041c-5.17053-10.41817-17.22494-30.75424-21.69369-41.58554,2.4571-3.01887,1.15027-7.85927,1.098-11.50257l-5.69778,.05205c-1.04547-5.10062-8.10236-26.492-8.31145-31.28035,.31508,.01268,.63065,.0024,.94423-.0307,1.98137-4.23716,.78857-9.3324,.93763-13.81383-.67955-.36434-3.1364-.05205-4.02505-.05205-1.93412-17.27966-4.60004-44.136-5.43642-61.4677,28.38437-28.15752,56.76876-32.73766,95.08504-26.17973-12.33649,38.82718-16.30926,22.12004-36.01627,42.62663,11.40215,.55585,112.47804-34.15716,75.55597-56.50794Z"/>
  <path class="cls-18" d="M158.79742,123.92432c-1.34237,2.92768-3.81237,5.13728-5.79906,7.73353-9.73239,12.75593-22.32882,23.06619-36.78104,30.10548-4.2956,2.0991-9.02074,3.7563-13.53113,5.41346-18.20259,6.5735-37.53277,9.16975-56.64815,11.15839-1.18129,.11049-3.43644,.60761-5.20841,.77334-1.66455,.44191-3.38279,.88382-5.04732,1.16004,2.45509,1.00457,4.96478,1.87137,7.51729,2.59631,2.46996,.66288,4.99362,.99431,7.46358,1.71244,2.68476,0,5.47688,.71809,8.10794,.88382,6.63885,.41481,13.30352,.08126,19.86712-.99431,2.79214-.93907,5.85273-1.38098,8.6986-2.26483,7.04942-2.08881,13.82618-4.99987,20.18927-8.67262,4.67148-2.70671,9.02074-5.91061,13.58483-8.8383l12.02767-6.90492c1.82561-1.04955,3.75864-2.87249,5.69167-3.59057-2.89953,6.5735-7.94685,16.51659-5.63798,23.91866l.16106,.44191,.96653,2.48577c.77461,1.54264,1.65815,3.02862,2.64399,4.44675,.20368-.30465,.42939-.59409,.67533-.86607,.23623-.25906,.49153-.49989,.73026-.75653,.07252-.07796,.14654-.1575,.21711-.23924-.01279,.00416,.02259-.06369,.08557-.16925,.20228-.33297,.47936-.61468,.80946-.82299,.22798-.29119,.47266-.56904,.7328-.83217,.33882-.73396,1.03677-1.23954,1.84242-1.3346,1.46017-1.9776,2.83847-4.00716,4.1833-5.9994l5.85273-9.00403c1.44977-2.48577,2.52369-5.35821,4.18821-7.62302l2.63108-34.13802-.21474,.22095Z"/>
  <path class="cls-25" d="M164.82773,193.41544h7.93956l6.53094,29.87987-5.95465,.05196-15.11077-.05196,6.59492-29.87987Z"/>
  <polygon class="cls-22" points="173.37581 133.70996 173.2723 127.11038 170.39518 130.41017 173.37581 133.70996"/>
  <polygon class="cls-35" points="173.67114 138.20372 169.09149 144.732 164.51184 138.20372 169.09149 131.67491 173.67114 138.20372"/>
  <polygon class="cls-14" points="164.10879 150.01739 164.23321 142.08331 167.69213 146.05035 164.10879 150.01739"/>
  <polygon class="cls-10" points="174.17507 150.01739 174.05013 142.08331 170.59173 146.05035 174.17507 150.01739"/>
  <polygon class="cls-20" points="173.86248 153.64298 169.28281 160.17178 164.70366 153.64298 169.28281 147.1147 173.86248 153.64298"/>
  <polygon class="cls-33" points="163.688 166.01044 163.84743 155.84458 168.27917 160.9275 163.688 166.01044"/>
  <polygon class="cls-15" points="175.01824 166.01044 174.85828 155.84458 170.42654 160.9275 175.01824 166.01044"/>
  <polygon class="cls-28" points="169.52379 162.42177 162.88039 173.03264 175.69622 173.23041 169.52379 162.42177"/>
  <polygon class="cls-6" points="164.71151 133.70996 164.81501 127.11038 167.69213 130.41017 164.71151 133.70996"/>
  <polygon class="cls-34" points="169.03974 118.71361 165.07429 125.08575 169.03974 128.6718 172.38313 125.08575 169.03974 118.71361"/>
  <path class="cls-5" d="M177.76099,32.54809c-.86957-.72711-1.73914-1.45428-2.6087-2.18139-.19879-.78534-.39752-1.57061-.59631-2.35595-.69562-.63965-1.3913-1.2793-2.08691-1.91902V.78684c-.22363-.23265-.4472-.46537-.67084-.69803-.29816-.02965-.59625-.05923-.89441-.08882-.29816,.02958-.59625,.05916-.89441,.08882-.22363,.23265-.4472,.46537-.67084,.69803V26.09173c-.69562,.63972-1.3913,1.27937-2.08691,1.91902-.19879,.78534-.39752,1.57061-.59631,2.35595-.86957,.72711-1.73914,1.45428-2.6087,2.18139-1.36646,2.21047-2.73291,4.42102-4.09937,6.63149l10.95654-.08724,10.95654,.08724c-1.36646-2.21047-2.73291-4.42102-4.09937-6.63149Z"/>
  <path class="cls-37" d="M208.63198,85.29276l-43.70728-50.59688-.01897-.27867-.35386-.15289-.04041-.04678,.00212,.03022-.15988-.06908-.86198,1.29552,1.19473,1.22851,4.3382,61.61349c12.93529-4.86393,26.20309-9.28777,39.60732-13.02343Z"/>
  <path class="cls-23" d="M164.29553,34.19239l-.02979,.02743,.00742,.11099,84.75863,42.5793c20.68885-2.99663,41.19367-3.74923,60.76352-1.33452L164.29553,34.19239Z"/>
  <path class="cls-4" d="M228.92652,80.45554c6.78622-1.41263,13.57755-2.63212,20.35022-3.61305l-84.65532-42.52688,64.30511,46.13993Z"/>
  <path class="cls-23" d="M164.51267,34.3156l.10956,1.64806,42.67968,49.73901c7.26115-1.99087,14.55096-3.75793,21.86944-5.30114l-61.07397-44.26654-3.58471-1.8194Z"/>
  <path class="cls-9" d="M133.18583,62.7745l-18.38414,59.0679c9.46645-4.43891,19.34467-8.83188,29.52749-13.06181l10.33262-65.25517-21.47597,19.24908Z"/>
  <path class="cls-2" d="M163.93185,34.86375l-12.40439,11.59112-7.84249,62.58611c9.07659-4.05455,18.41023-7.98883,27.93351-11.70873l-6.69917-61.47646-.98746-.99204Z"/>
  <path class="cls-31" d="M97.8489,95.6831l-18.70566,42.95521-.40933,2.24339c11.62514-6.48317,24.46784-13.27386,38.19795-19.96595l17.7957-59.62575-36.87866,34.3931Z"/>
  <path class="cls-16" d="M101.73885,92.03659l-13.34132,12.64724-.02988,.16643-34.28551,32.50181-11.22316,25.37247c10.5269-6.76653,23.96435-15.04787,39.55299-23.88483l.52208-2.90845,18.80479-43.89466Z"/>
  <path class="cls-1" d="M59.16755,132.53409l-38.75652,36.21701c-.17713,3.10623-.36023,6.21199-.64518,9.31048,2.92995-2.05619,12.09096-8.38914,25.89469-17.04167l13.50701-28.48583Z"/>
  <path class="cls-24" d="M143.16703,147.39257s-21.3457,18.89519-46.81816,29.40963c-11.66972,4.817-24.20481,7.87526-35.95159,6.55072l-.05022-.00477S18.85025,174.94224,0,145.20728c0,0,16.32912,44.59112,52.93698,57.85539l.06007,.02977c1.01248,.4996,16.20181,7.78948,36.40792,6.0671,15.94953-1.35954,35.01989-8.33425,52.70771-28.71305-.00002,0-10.01074-6.143,1.05433-33.05392Z"/>
</svg>